<svg xmlns="http://www.w3.org/2000/svg" viewBox="0 0 128 128">
  <!-- Glow base -->
  <ellipse cx="64" cy="116" rx="30" ry="8" fill="#00bfff" opacity="0.3"/>
  <!-- Crystal cluster - main large crystal -->
  <polygon points="64,8 80,50 72,115 56,115 48,50" fill="#00c8ff"/>
  <polygon points="64,8 80,50 72,115 64,110" fill="#7ee8ff" opacity="0.6"/>
  <polygon points="64,8 48,50 56,115 64,110" fill="#0090c0" opacity="0.8"/>
  <!-- Left side crystal -->
  <polygon points="40,22 54,58 50,108 36,105 28,55" fill="#00a8e8"/>
  <polygon points="40,22 54,58 50,108 42,104" fill="#7ee8ff" opacity="0.5"/>
  <!-- Right side crystal -->
  <polygon points="88,22 74,58 78,108 92,105 100,55" fill="#00a8e8"/>
  <polygon points="88,22 74,58 78,108 86,104" fill="#7ee8ff" opacity="0.5"/>
  <!-- Small crystal left -->
  <polygon points="22,42 30,68 28,98 18,96 12,66" fill="#0090c0" opacity="0.8"/>
  <!-- Small crystal right -->
  <polygon points="106,42 98,68 100,98 110,96 116,66" fill="#0090c0" opacity="0.8"/>
  <!-- Inner glow lines on main crystal -->
  <line x1="64" y1="12" x2="64" y2="108" stroke="white" stroke-width="2" opacity="0.4"/>
  <line x1="60" y1="20" x2="68" y2="20" stroke="white" stroke-width="1.5" opacity="0.5"/>
  <line x1="56" y1="38" x2="72" y2="38" stroke="white" stroke-width="1.5" opacity="0.4"/>
  <!-- Sparkle at tip -->
  <path d="M64 4 L65.5 8 L70 8 L66.5 10.5 L68 15 L64 12 L60 15 L61.5 10.5 L58 8 L62.5 8 Z" fill="white"/>
  <!-- Sparkles floating -->
  <circle cx="32" cy="28" r="3" fill="#7ee8ff" opacity="0.7"/>
  <circle cx="100" cy="32" r="2.5" fill="white" opacity="0.6"/>
  <circle cx="112" cy="80" r="2" fill="#7ee8ff" opacity="0.5"/>
  <circle cx="16" cy="75" r="2" fill="white" opacity="0.5"/>
  <!-- Refraction shimmer -->
  <line x1="55" y1="60" x2="72" y2="48" stroke="white" stroke-width="1" opacity="0.3"/>
</svg>
