<svg xmlns="http://www.w3.org/2000/svg" viewBox="0 0 64 64">
  <!-- Outer glow -->
  <polygon points="32,4 56,22 32,60 8,22" fill="#00bcd4" opacity="0.15"/>
  <!-- Main diamond shape -->
  <polygon points="32,6 54,22 32,58 10,22" fill="#4dd0e1"/>
  <!-- Top facets -->
  <polygon points="32,6 10,22 32,22" fill="#80deea"/>
  <polygon points="32,6 54,22 32,22" fill="#26c6da"/>
  <!-- Bottom facets -->
  <polygon points="10,22 32,22 32,58" fill="#00acc1"/>
  <polygon points="54,22 32,22 32,58" fill="#0097a7"/>
  <!-- Center line highlight -->
  <line x1="32" y1="6" x2="32" y2="58" stroke="#fff" stroke-width="1" opacity="0.2"/>
  <line x1="10" y1="22" x2="54" y2="22" stroke="#fff" stroke-width="0.5" opacity="0.2"/>
  <!-- Sparkle -->
  <path d="M20 16 L21 13 L22 16 L25 17 L22 18 L21 21 L20 18 L17 17 Z" fill="#fff" opacity="0.6"/>
  <circle cx="42" cy="14" r="1.5" fill="#fff" opacity="0.5"/>
  <!-- Top shine -->
  <polygon points="32,8 24,20 32,20" fill="#fff" opacity="0.15"/>
</svg>
