<svg xmlns="http://www.w3.org/2000/svg" viewBox="0 0 64 64">
  <!-- Flame -->
  <path d="M26 52 Q32 64 38 52 Q35 56 32 58 Q29 56 26 52" fill="#ff6f00" opacity="0.8"/>
  <path d="M28 52 Q32 60 36 52" fill="#f9ca24" opacity="0.9"/>
  <!-- Fins -->
  <path d="M22 40 L14 52 L24 48 Z" fill="#e53935"/>
  <path d="M42 40 L50 52 L40 48 Z" fill="#e53935"/>
  <!-- Rocket body -->
  <path d="M24 48 L24 22 Q32 4 40 22 L40 48 Z" fill="#ecf0f1"/>
  <!-- Body stripe -->
  <rect x="24" y="34" width="16" height="6" fill="#e53935"/>
  <!-- Window -->
  <circle cx="32" cy="24" r="6" fill="#2196f3"/>
  <circle cx="32" cy="24" r="4" fill="#64b5f6" opacity="0.6"/>
  <circle cx="30" cy="22" r="1.5" fill="#fff" opacity="0.6"/>
  <!-- Nose cone highlight -->
  <path d="M30 12 Q32 6 34 12" fill="#fff" opacity="0.3"/>
  <!-- Body highlight -->
  <rect x="26" y="22" width="2" height="20" rx="1" fill="#fff" opacity="0.2"/>
  <!-- Exhaust particles -->
  <circle cx="28" cy="56" r="1.5" fill="#ff9800" opacity="0.4"/>
  <circle cx="36" cy="58" r="1" fill="#ff9800" opacity="0.3"/>
</svg>
